PathFileType	4	(X/Y/Z)	C:/Users/opensim2020/Desktop/walking_exp_matlab/subject06_walking12_straigt_01.trc																																																																																																																																														
DataRate	CameraRate	NumFrames	NumMarkers	Units	OrigDataRate	OrigDataStartFrame	OrigNumFrames																																																																																																																																										
100	100	8	48	mm	100	844	196																																																																																																																																										
Frame#	Time	LFHD			RFHD			LBHD			RBHD			C7			T10			CLAV			STRN			RBAK			LSHO			LUPA			LELB			LFRM			LWRA			LWRB			LFIN			RSHO			RUPA			RELB			RFRM			RWRA			RWRB			RFIN			LASI			RASI			LPSI			RPSI			LTHI			LKNE			LTIB			LANK			LHEE			LTOE			RTHI			RKNE			RTIB			RANK			RHEE			RTOE			*39			*40			*41			*42			*43			*44			*45			*46			*47		
		X1	Y1	Z1	X2	Y2	Z2	X3	Y3	Z3	X4	Y4	Z4	X5	Y5	Z5	X6	Y6	Z6	X7	Y7	Z7	X8	Y8	Z8	X9	Y9	Z9	X10	Y10	Z10	X11	Y11	Z11	X12	Y12	Z12	X13	Y13	Z13	X14	Y14	Z14	X15	Y15	Z15	X16	Y16	Z16	X17	Y17	Z17	X18	Y18	Z18	X19	Y19	Z19	X20	Y20	Z20	X21	Y21	Z21	X22	Y22	Z22	X23	Y23	Z23	X24	Y24	Z24	X25	Y25	Z25	X26	Y26	Z26	X27	Y27	Z27	X28	Y28	Z28	X29	Y29	Z29	X30	Y30	Z30	X31	Y31	Z31	X32	Y32	Z32	X33	Y33	Z33	X34	Y34	Z34	X35	Y35	Z35	X36	Y36	Z36	X37	Y37	Z37	X38	Y38	Z38	X39	Y39	Z39	X40	Y40	Z40	X41	Y41	Z41	X42	Y42	Z42	X43	Y43	Z43	X44	Y44	Z44	X45	Y45	Z45	X46	Y46	Z46	X47	Y47	Z47	X48	Y48	Z48
																																																																																																																																																	
50	0.49	-1052.82813	1665.19946	394.74658	-922.73041	1646.21301	406.34528	-1067.75159	1621.62305	530.29932	-939.54779	1607.67004	540.39014	-1019.13092	1458.37402	547.435	-1015.92841	1130.776	595.80969	-1016.96155	1375.31421	440.66595	-1029.37097	1199.33325	407.31046	-946.28107	1288.01453	629.3172	-1178.73987	1415.98633	489.0065	-1257.00964	1216.25562	491.22214	-1273.03796	1104.28711	493.26315	-1296.30054	959.20465	452.39694	-1250.58093	852.32489	382.02441	-1293.50012	840.46161	437.40579	-1292.82434	767.3725	384.26187	-857.15576	1406.12952	491.11261	-775.67645	1207.60693	537.26776	-763.66095	1085.94446	532.10553	-743.64618	966.01776	528.99854	-765.96118	819.61804	484.56631	-730.86182	828.25916	541.15338	-723.64374	748.61438	513.38983	-1129.27197	959.75482	429.73489	-909.19995	972.43555	417.07932	-1094.797	992.19794	584.75275	-927.72626	1003.45618	569.40802	-1181.62549	640.9278	491.62833	-1165.65088	478.44464	478.83545	-1150.15894	325.34979	671.60986	-1110.52893	214.485	800.93268	-1059.63379	233.5811	830.07202	-1120.83582	76.33291	750.06787	-846.05383	642.24316	464.92886	-871.30231	517.62384	453.54926	-882.51672	251.5067	484.10345	-934.1236	64.20583	467.76416	-982.40802	39.51495	499.84296	-939.43231	36.58783	305.16357	-999.44275	1707.47424	496.28702	NaN	NaN	NaN	NaN	NaN	NaN	NaN	NaN	NaN	NaN	NaN	NaN	NaN	NaN	NaN	NaN	NaN	NaN	NaN	NaN	NaN	NaN	NaN	NaN
51	0.5	-1052.74255	1666.01074	385.59235	-922.52332	1647.22839	396.67905	-1067.00818	1622.25513	521.17175	-938.80212	1608.49646	530.68652	-1018.21277	1459.08325	537.89697	-1014.98413	1131.53137	586.0957	-1016.16516	1376.09998	431.12225	-1028.39819	1200.08582	397.76105	-944.93268	1288.67407	619.63556	-1178.0863	1416.25024	479.97006	-1255.82056	1216.4325	483.9093	-1271.65271	1104.52881	487.50977	-1295.21741	958.57654	449.88913	-1249.64941	849.75177	382.31787	-1292.92993	839.65424	438.1615	-1291.98462	764.9939	386.81323	-856.30365	1407.04187	481.43082	-774.61029	1208.31604	526.29633	-762.45343	1086.66821	519.80566	-742.34167	966.81067	515.3111	-764.40942	820.89581	468.58444	-729.74835	828.8786	525.55896	-722.33276	749.73206	496.71091	-1127.85315	960.54852	420.2825	-907.99115	972.88501	407.99173	-1094.38391	993.03137	574.96948	-927.09857	1004.26666	560.52771	-1180.91943	642.15186	477.22641	-1164.58069	479.91391	461.44861	-1149.15308	325.46332	652.47742	-1109.39575	213.56007	781.07733	-1058.67358	232.02071	811.30768	-1119.31897	77.12847	726.51508	-846.00891	642.42047	460.06042	-870.76349	517.51465	450.78619	-882.23822	251.77692	483.20367	-934.06805	64.21095	467.9079	-982.35913	39.43522	499.94031	-939.29443	36.68706	305.46432	-998.9342	1708.22888	487.01312	NaN	NaN	NaN	NaN	NaN	NaN	NaN	NaN	NaN	NaN	NaN	NaN	NaN	NaN	NaN	NaN	NaN	NaN	NaN	NaN	NaN	NaN	NaN	NaN
52	0.51	-1052.51392	1666.71362	376.43585	-922.28668	1648.06506	387.05579	-1066.33411	1622.79443	512.06647	-937.9892	1609.2179	521.14246	-1017.38031	1459.74341	528.51666	-1014.10901	1132.01294	576.41333	-1015.46887	1376.76135	421.6785	-1027.42065	1200.62866	388.31491	-943.63556	1289.27148	610.04425	-1177.32813	1416.99121	470.71661	-1254.83289	1216.6593	476.81476	-1270.54797	1104.90601	481.75748	-1294.11401	958.15216	447.52319	-1248.71265	847.50543	382.72482	-1292.16187	838.93774	438.67499	-1291.29688	762.91327	389.25122	-855.50037	1407.87097	471.72086	-773.60303	1208.89868	515.35211	-761.21185	1087.36304	507.70001	-741.1413	967.57043	501.6738	-763.37445	822.41772	453.32352	-728.61823	829.50104	510.12894	-720.96704	750.86267	480.27448	-1126.8313	961.50159	409.82312	-906.82025	973.21771	399.27756	-1094.09998	993.84406	565.20984	-926.80719	1004.86475	551.42206	-1180.05249	643.16882	462.61453	-1163.42053	481.32983	444.11307	-1148.27234	324.83615	633.2547	-1108.30078	211.45631	760.64508	-1057.72461	229.17424	791.89038	-1117.89758	77.56316	701.57056	-845.74963	642.58722	454.66962	-870.29199	517.35962	447.67767	-882.13092	252.03984	482.13168	-934.14215	64.27424	467.89664	-982.21259	39.65473	500.40491	-939.1662	36.71893	305.74191	-998.505	1708.87305	477.72144	NaN	NaN	NaN	NaN	NaN	NaN	NaN	NaN	NaN	NaN	NaN	NaN	NaN	NaN	NaN	NaN	NaN	NaN	NaN	NaN	NaN	NaN	NaN	NaN
53	0.52	-1052.54138	1667.2865	367.38708	-922.19592	1648.75745	377.42285	-1065.61743	1623.16003	503.00302	-937.3501	1609.76721	511.4584	-1016.59363	1460.17419	519.04791	-1013.26807	1132.53735	566.83154	-1014.7757	1377.23938	412.18939	-1026.46777	1201.11304	378.74908	-942.42657	1289.78247	600.46014	-1176.68457	1416.71082	461.69821	-1254.00574	1217.00085	469.69586	-1269.17859	1105.18311	476.28088	-1292.98633	957.79865	445.10516	-1247.70923	845.45892	383.07077	-1291.36902	838.43732	438.99536	-1290.26782	761.13483	391.62387	-854.81122	1408.61743	462.09845	-772.31525	1209.52063	504.0957	-760.02209	1088.0094	495.62836	-739.95068	968.27069	488.10876	-762.1543	824.09265	437.685	-727.54932	830.12677	494.75058	-719.80963	751.95996	463.7399	-1125.55212	962.26172	399.90298	-905.55841	973.40918	390.45215	-1093.78052	994.51575	555.43298	-926.3822	1005.50562	542.62317	-1179.34473	644.41772	448.56342	-1162.12585	482.71567	426.89325	-1146.95313	323.23526	612.69403	-1107.37195	208.37878	739.36249	-1056.96167	225.21289	771.828	-1116.61279	77.07595	675.97302	-845.64166	642.59161	449.23184	-870.29584	517.13788	444.5654	-882.18005	252.21667	480.64493	-934.36255	64.37034	467.75452	-982.50171	39.57107	500.2692	-939.0542	36.81407	306.1564	-998.11743	1709.40942	468.46661	NaN	NaN	NaN	NaN	NaN	NaN	NaN	NaN	NaN	NaN	NaN	NaN	NaN	NaN	NaN	NaN	NaN	NaN	NaN	NaN	NaN	NaN	NaN	NaN
54	0.53	-1052.51624	1667.69922	358.36267	-922.16595	1649.37085	367.83267	-1065.05322	1623.42859	494.07541	-936.65961	1610.15527	501.82959	-1015.83392	1460.41345	509.64783	-1012.48523	1133.05713	557.39001	-1014.16016	1377.65869	402.74188	-1025.47974	1201.5343	369.14236	-941.31567	1290.30676	590.89478	-1176.00562	1417.46826	452.51004	-1252.97546	1217.15833	462.68573	-1268.09558	1105.4679	470.84036	-1291.85815	957.56116	442.60211	-1246.70752	843.69666	383.30838	-1290.53625	838.22601	439.23825	-1289.39124	759.57965	393.84055	-854.14545	1409.21704	452.49805	-771.30768	1210.0249	493.17654	-758.88629	1088.60706	483.72955	-738.81763	968.96869	474.68613	-761.26575	825.48157	422.27823	-726.57599	830.7713	479.32742	-718.88593	753.1153	447.15485	-1124.23718	962.73798	390.14539	-904.35675	973.46063	381.94614	-1093.54211	995.15039	545.74493	-926.10455	1005.92786	533.68683	-1178.84302	645.17279	434.46124	-1160.84741	484.10754	409.74872	-1146.27942	321.56802	593.43323	-1106.51965	204.27547	717.43451	-1056.46863	220.01671	750.94617	-1115.25439	76.35503	648.85352	-845.66345	642.48694	443.66064	-870.00366	516.96606	440.53009	-882.31396	252.36526	478.98154	-934.72742	64.50498	467.47137	-982.74609	39.73335	500.31989	-939.07947	36.72189	306.41788	-997.71527	1709.79248	459.26886	NaN	NaN	NaN	NaN	NaN	NaN	NaN	NaN	NaN	NaN	NaN	NaN	NaN	NaN	NaN	NaN	NaN	NaN	NaN	NaN	NaN	NaN	NaN	NaN
55	0.54	-1052.73254	1668.02332	349.42505	-922.24597	1649.89844	358.1907	-1064.50793	1623.5542	485.00757	-936.02271	1610.45142	492.30026	-1015.19128	1460.63538	500.12372	-1011.66919	1133.21851	547.89465	-1013.59534	1377.91443	393.24524	-1024.64355	1201.70447	359.82611	-940.34827	1290.71606	581.39252	-1175.30371	1417.44568	443.48798	-1252.14417	1217.31384	455.74033	-1266.90991	1105.92542	465.56876	-1290.70935	957.36517	440.19724	-1245.70276	842.06409	383.51239	-1289.55859	837.91626	439.25168	-1288.52014	758.23083	395.88577	-853.56512	1409.72864	442.89886	-770.29675	1210.51392	482.08423	-757.7688	1089.1272	472.08948	-737.72253	969.61316	461.46527	-760.59497	827.1015	406.92166	-725.5564	831.4151	463.98715	-718.1048	754.32983	430.52667	-1122.96558	963.16779	380.37766	-903.04333	973.24652	373.46841	-1093.30237	995.67029	536.17523	-925.7215	1006.22711	525.02728	-1178.2749	646.03741	420.50314	-1159.4989	485.5477	392.89157	-1145.76624	319.1127	572.2323	-1105.771	199.31148	694.62238	-1055.86304	213.97929	729.2738	-1114.1427	74.34815	621.62512	-845.67297	642.36816	438.03247	-869.71136	516.85535	436.37009	-882.5296	252.60655	477.09732	-935.18927	64.73119	467.06027	-983.19354	39.85723	500.1767	-939.15723	36.37	306.56271	-997.53748	1710.0802	450.04608	NaN	NaN	NaN	NaN	NaN	NaN	NaN	NaN	NaN	NaN	NaN	NaN	NaN	NaN	NaN	NaN	NaN	NaN	NaN	NaN	NaN	NaN	NaN	NaN
56	0.55	-1052.84863	1668.32568	340.29663	-922.46326	1650.35559	348.53607	-1064.09167	1623.604	475.99493	-935.58667	1610.66345	482.68851	-1014.56647	1460.80811	490.62973	-1010.95441	1133.53589	538.63727	-1013.07947	1378.14392	383.84201	-1023.71576	1201.86169	350.35989	-939.44128	1291.01733	571.87677	-1174.94666	1417.75513	434.26331	-1251.52747	1217.55505	448.77036	-1265.80981	1106.22266	460.16727	-1289.66101	957.20276	437.76108	-1244.67444	840.66064	383.5097	-1288.68359	837.7832	439.28149	-1287.63538	757.09161	397.76434	-853.00415	1410.12036	433.24747	-769.31598	1210.9198	471.60236	-756.62537	1089.57068	460.7164	-736.67694	970.23798	448.4248	-760.04297	828.67212	391.62228	-724.75793	832.05945	448.52887	-717.54132	755.57037	413.77097	-1121.71338	963.48334	370.56656	-901.80719	972.89429	365.08105	-1093.10852	996.05023	526.66748	-925.16449	1006.39136	516.68585	-1177.67395	646.93365	406.74481	-1158.16724	487.05524	376.20233	-1145.0022	316.24115	551.58777	-1105.13525	193.5451	671.28229	-1055.24536	207.0275	706.91248	-1113.2937	72.05722	593.43781	-845.64453	642.15137	432.22955	-869.38794	516.66132	431.64404	-882.80646	252.75186	474.57501	-935.73883	64.98843	466.45663	-983.68597	40.03991	499.93158	-939.21661	35.81192	306.51083	-997.31268	1710.26746	440.90912	NaN	NaN	NaN	NaN	NaN	NaN	NaN	NaN	NaN	NaN	NaN	NaN	NaN	NaN	NaN	NaN	NaN	NaN	NaN	NaN	NaN	NaN	NaN	NaN
57	0.56	-1053.1499	1668.49548	331.31482	-922.58948	1650.70544	338.98239	-1063.72998	1623.51892	466.94656	-935.14087	1610.77026	473.09253	-1014.00128	1461.00037	481.18225	-1010.23029	1133.62122	529.3147	-1012.61224	1378.19348	374.35971	-1022.89026	1201.89441	340.95929	-938.57465	1291.27307	562.46857	-1174.39282	1417.38867	425.07422	-1250.66638	1217.59119	441.91739	-1264.79053	1106.53247	454.79282	-1288.60046	957.08307	435.25586	-1243.61096	839.3175	383.41708	-1287.69812	837.7594	439.14731	-1286.6582	756.1308	399.4718	-852.50684	1410.43567	423.53387	-768.37354	1211.26782	461.16953	-755.46161	1089.99597	449.78354	-735.67407	970.86511	435.70627	-759.68573	830.40265	376.40338	-724.03674	832.76141	433.12201	-717.10297	756.96832	397.02777	-1120.46106	963.6507	360.85132	-900.64709	972.47266	356.63834	-1092.87988	996.36755	517.1958	-925.13849	1006.15454	507.44772	-1176.9314	647.84546	393.46878	-1156.78064	488.6506	359.73895	-1143.98413	312.85974	530.29346	-1104.51257	187.13376	647.12292	-1054.92261	199.26605	683.46484	-1112.48059	69.28436	564.55798	-845.7691	641.90802	425.82324	-869.63422	516.2511	426.45459	-882.9696	252.80602	471.50656	-936.41034	65.28406	465.68369	-984.15283	40.35133	499.73022	-939.13245	35.23862	306.37424	-997.32568	1710.36414	431.7247	NaN	NaN	NaN	NaN	NaN	NaN	NaN	NaN	NaN	NaN	NaN	NaN	NaN	NaN	NaN	NaN	NaN	NaN	NaN	NaN	NaN	NaN	NaN	NaN
